<svg width="4306" height="711" viewBox="0 0 4306 711" fill="none" xmlns="http://www.w3.org/2000/svg">
<path fill-rule="evenodd" clip-rule="evenodd" d="M512 130C512 113.431 498.569 100 482 100H30C13.4315 100 0 113.431 0 130V582C0 598.569 13.4315 612 30 612H482C498.569 612 512 598.569 512 582V130ZM256 559C368.114 559 459 468.114 459 356C459 243.886 368.114 153 256 153C143.886 153 53 243.886 53 356C53 468.114 143.886 559 256 559Z" fill="black"/>
<path d="M760.791 548V163.601H933.741C977.176 163.601 1010.74 172.485 1034.43 190.254C1058.12 208.023 1069.97 233.492 1069.97 266.66C1069.97 287.193 1065.43 303.777 1056.35 316.413C1047.66 329.048 1035.22 338.525 1019.03 344.843C1002.84 350.766 983.889 354.715 962.171 356.689L963.356 352.543C979.545 353.333 994.748 355.109 1008.96 357.873C1023.57 360.637 1036.21 365.178 1046.87 371.496C1057.93 377.814 1066.61 386.501 1072.93 397.557C1079.64 408.613 1083 423.026 1083 440.795C1083 464.092 1077.47 483.637 1066.42 499.432C1055.36 514.832 1039.96 526.48 1020.22 534.377C1000.87 542.274 978.361 546.815 952.695 548H760.791ZM817.652 497.063H942.033C968.094 497.063 988.43 492.324 1003.04 482.848C1017.65 473.371 1024.95 458.366 1024.95 437.833C1024.95 422.039 1020.41 410.193 1011.33 402.296C1002.25 394.398 990.404 389.265 975.794 386.896C961.579 384.527 946.772 383.342 931.372 383.342H817.652V497.063ZM817.652 332.997H929.003C955.064 332.997 975.399 327.864 990.009 317.597C1004.62 306.936 1011.92 291.536 1011.92 271.398C1011.92 250.866 1004.62 236.256 990.009 227.569C975.399 218.882 956.841 214.538 934.334 214.538H817.652V332.997ZM1145.79 252.445H1202.65V548H1145.79V252.445ZM1302.75 302.79C1282.22 302.79 1264.65 307.528 1250.04 317.005C1235.82 326.482 1224.37 338.13 1215.68 351.95C1207.39 365.771 1201.86 378.999 1199.1 391.634L1198.51 357.873C1198.9 353.925 1199.89 347.804 1201.47 339.512C1203.44 330.825 1206.8 321.151 1211.54 310.49C1216.28 299.829 1222.59 289.76 1230.49 280.283C1238.39 270.411 1248.26 262.317 1260.1 255.999C1271.95 249.681 1286.17 246.522 1302.75 246.522V302.79ZM1476.03 553.923C1450.76 553.923 1427.66 547.408 1406.73 534.377C1385.81 521.347 1369.22 503.38 1356.98 480.478C1344.74 457.181 1338.62 430.528 1338.62 400.519C1338.62 370.509 1344.74 344.053 1356.98 321.151C1369.62 297.854 1386.79 279.691 1408.51 266.66C1430.23 253.235 1454.51 246.522 1481.36 246.522C1510.98 246.522 1533.88 253.432 1550.07 267.252C1566.65 281.073 1578.11 299.631 1584.42 322.928C1591.14 346.225 1594.49 372.089 1594.49 400.519C1594.49 416.313 1592.52 433.095 1588.57 450.864C1584.62 468.633 1578.3 485.414 1569.62 501.209C1560.93 517.003 1548.89 529.836 1533.49 539.708C1518.09 549.185 1498.94 553.923 1476.03 553.923ZM1492.03 504.762C1512.95 504.762 1530.52 500.222 1544.74 491.14C1559.35 481.663 1570.21 469.027 1577.32 453.233C1584.42 437.438 1587.98 419.867 1587.98 400.519C1587.98 379.591 1584.23 361.23 1576.72 345.435C1569.62 329.641 1558.76 317.4 1544.15 308.713C1529.93 300.026 1512.56 295.683 1492.03 295.683C1461.23 295.683 1437.34 305.554 1420.36 325.297C1403.77 345.04 1395.48 370.114 1395.48 400.519C1395.48 421.052 1399.63 439.215 1407.92 455.01C1416.21 470.409 1427.47 482.65 1441.68 491.732C1456.29 500.419 1473.07 504.762 1492.03 504.762ZM1587.98 252.445H1644.84V548H1592.72C1592.72 548 1592.32 544.446 1591.53 537.339C1590.74 529.836 1589.95 520.952 1589.16 510.685C1588.37 500.419 1587.98 491.337 1587.98 483.44V252.445ZM1719 252.445H1775.86V548H1719V252.445ZM1888.4 246.522C1904.98 246.522 1919.98 248.891 1933.41 253.63C1946.83 258.368 1958.29 265.475 1967.76 274.952C1977.24 284.034 1984.54 295.485 1989.68 309.305C1995.21 322.731 1997.97 338.13 1997.97 355.504V548H1941.7V367.942C1941.7 344.646 1935.98 327.272 1924.53 315.821C1913.47 303.975 1896.49 298.052 1873.59 298.052C1855.82 298.052 1839.63 302.198 1825.02 310.49C1810.41 318.782 1798.37 329.838 1788.89 343.658C1779.81 357.084 1774.28 372.286 1772.31 389.265L1771.71 356.689C1773.69 340.894 1777.83 326.284 1784.15 312.859C1790.86 299.434 1799.16 287.785 1809.03 277.914C1819.29 267.647 1831.14 259.947 1844.57 254.814C1857.99 249.286 1872.6 246.522 1888.4 246.522ZM2194.42 553.923C2168.76 553.923 2145.46 547.408 2124.53 534.377C2103.6 521.347 2087.02 503.38 2074.78 480.478C2062.93 457.181 2057.01 430.528 2057.01 400.519C2057.01 370.509 2062.93 344.053 2074.78 321.151C2086.62 297.854 2102.81 279.691 2123.35 266.66C2143.88 253.235 2167.57 246.522 2194.42 246.522C2217.72 246.522 2237.07 250.471 2252.47 258.368C2267.87 266.265 2279.91 277.321 2288.6 291.536C2297.28 305.752 2303.4 322.138 2306.96 340.697C2310.91 359.255 2312.88 379.196 2312.88 400.519C2312.88 416.313 2310.91 433.095 2306.96 450.864C2303.01 468.633 2296.69 485.414 2288 501.209C2279.32 517.003 2267.27 529.836 2251.87 539.708C2236.47 549.185 2217.32 553.923 2194.42 553.923ZM2210.41 504.762C2231.34 504.762 2248.91 500.222 2263.13 491.14C2277.74 481.663 2288.6 469.027 2295.7 453.233C2302.81 437.438 2306.37 419.867 2306.37 400.519C2306.37 379.591 2302.61 361.23 2295.11 345.435C2288 329.641 2277.15 317.4 2262.54 308.713C2248.32 300.026 2230.95 295.683 2210.41 295.683C2179.61 295.683 2155.73 305.554 2138.75 325.297C2122.16 345.04 2113.87 370.114 2113.87 400.519C2113.87 421.052 2118.02 439.215 2126.31 455.01C2134.6 470.409 2145.85 482.65 2160.07 491.732C2174.68 500.419 2191.46 504.762 2210.41 504.762ZM2306.37 133.986H2363.23V548H2311.1C2309.92 539.313 2308.73 528.652 2307.55 516.016C2306.76 503.38 2306.37 492.522 2306.37 483.44V133.986ZM2561.36 421.841H2615.85C2617.03 437.241 2622.17 451.259 2631.25 463.894C2640.72 476.135 2653.36 485.809 2669.16 492.917C2685.34 500.024 2704.1 503.578 2725.42 503.578C2743.98 503.578 2759.38 501.011 2771.62 495.878C2783.86 490.745 2792.94 483.835 2798.87 475.148C2805.19 466.066 2808.34 455.405 2808.34 443.164C2808.34 430.923 2804.99 421.249 2798.28 414.141C2791.56 406.639 2781.49 400.519 2768.07 395.78C2754.64 390.647 2738.06 385.711 2718.32 380.973C2700.94 376.629 2683.77 371.496 2666.79 365.573C2650.2 359.255 2634.8 351.556 2620.59 342.474C2606.77 333.392 2595.51 322.533 2586.83 309.898C2578.53 296.867 2574.39 281.27 2574.39 263.106C2574.39 243.758 2579.72 226.187 2590.38 210.392C2601.04 194.203 2616.64 181.37 2637.17 171.893C2658.1 162.021 2683.37 157.086 2712.98 157.086C2758.79 157.086 2793.34 168.537 2816.64 191.439C2840.33 214.341 2851.78 244.943 2850.99 283.244H2797.68C2796.5 256.394 2788.01 237.243 2772.21 225.792C2756.42 213.946 2735.89 208.023 2710.62 208.023C2688.9 208.023 2670.34 212.564 2654.94 221.646C2639.54 230.333 2631.84 244.153 2631.84 263.106C2631.84 271.398 2633.62 278.703 2637.17 285.021C2640.72 290.944 2646.65 296.472 2654.94 301.605C2663.23 306.739 2674.29 311.674 2688.11 316.413C2702.32 321.151 2719.9 326.284 2740.82 331.812C2756.62 335.366 2771.82 339.907 2786.43 345.435C2801.43 350.963 2814.86 357.873 2826.71 366.166C2838.55 374.458 2847.83 385.119 2854.54 398.149C2861.65 411.18 2865.2 427.172 2865.2 446.125C2865.2 466.263 2860.27 484.624 2850.4 501.209C2840.53 517.398 2825.13 530.429 2804.2 540.3C2783.67 549.777 2757.01 554.515 2724.24 554.515C2698.18 554.515 2675.47 551.159 2656.12 544.446C2637.17 537.734 2621.18 529.047 2608.15 518.385C2595.51 507.724 2585.44 496.273 2577.94 484.032C2570.83 471.791 2565.9 460.143 2563.13 449.087C2560.77 438.031 2560.17 428.949 2561.36 421.841ZM3215.78 435.464C3213.41 459.946 3205.51 481.268 3192.09 499.432C3179.06 517.201 3161.88 530.823 3140.56 540.3C3119.23 549.777 3095.54 554.515 3069.48 554.515C3040.66 554.515 3014.2 548.592 2990.11 536.746C2966.03 524.506 2946.68 506.934 2932.07 484.032C2917.85 460.735 2910.75 433.095 2910.75 401.111C2910.75 368.732 2917.85 341.092 2932.07 318.19C2946.68 294.893 2966.03 277.124 2990.11 264.883C3014.2 252.642 3040.66 246.522 3069.48 246.522C3095.54 246.522 3119.04 251.26 3139.96 260.737C3160.89 270.214 3178.07 283.837 3191.49 301.605C3204.92 318.979 3213.01 339.907 3215.78 364.389H3164.25C3157.54 343.066 3145.49 326.284 3128.12 314.044C3111.14 301.408 3091.59 295.09 3069.48 295.09C3051.32 295.09 3034.34 299.236 3018.54 307.528C3003.14 315.821 2990.71 327.864 2981.23 343.658C2972.15 359.058 2967.61 378.209 2967.61 401.111C2967.61 423.223 2972.15 442.177 2981.23 457.971C2990.71 473.371 3003.14 485.217 3018.54 493.509C3033.94 501.406 3050.92 505.355 3069.48 505.355C3094.75 505.355 3115.29 499.234 3131.08 486.994C3146.87 474.753 3158.13 457.576 3164.84 435.464H3215.78ZM3417.67 554.515C3388.85 554.515 3362.39 548.395 3338.3 536.154C3314.22 523.913 3295.07 506.342 3280.85 483.44C3266.64 460.538 3259.53 433.095 3259.53 401.111C3259.53 368.732 3266.64 341.092 3280.85 318.19C3295.07 294.893 3314.22 277.124 3338.3 264.883C3362.39 252.642 3388.85 246.522 3417.67 246.522C3446.5 246.522 3472.76 252.642 3496.45 264.883C3520.14 277.124 3539.09 294.893 3553.31 318.19C3567.52 341.092 3574.63 368.732 3574.63 401.111C3574.63 433.095 3567.52 460.538 3553.31 483.44C3539.09 506.342 3520.14 523.913 3496.45 536.154C3472.76 548.395 3446.5 554.515 3417.67 554.515ZM3417.67 505.355C3435.44 505.355 3451.83 501.406 3466.83 493.509C3482.23 485.217 3494.47 473.371 3503.55 457.971C3513.03 442.177 3517.77 423.223 3517.77 401.111C3517.77 378.604 3513.03 359.453 3503.55 343.658C3494.47 327.864 3482.23 315.821 3466.83 307.528C3451.83 299.236 3435.44 295.09 3417.67 295.09C3399.9 295.09 3383.32 299.236 3367.92 307.528C3352.52 315.426 3340.08 327.272 3330.6 343.066C3321.13 358.861 3316.39 378.209 3316.39 401.111C3316.39 423.223 3320.93 442.177 3330.01 457.971C3339.49 473.371 3351.93 485.217 3367.33 493.509C3382.73 501.406 3399.51 505.355 3417.67 505.355ZM3802.93 554.515C3780.03 554.515 3760.87 549.579 3745.47 539.708C3730.07 529.836 3718.03 517.003 3709.34 501.209C3700.66 485.414 3694.34 468.633 3690.39 450.864C3686.44 433.095 3684.47 416.313 3684.47 400.519C3684.47 379.196 3686.25 359.255 3689.8 340.697C3693.75 322.138 3700.07 305.752 3708.75 291.536C3717.44 277.321 3729.48 266.265 3744.88 258.368C3760.28 250.471 3779.63 246.522 3802.93 246.522C3828.59 246.522 3851.69 253.235 3872.23 266.66C3892.76 279.691 3909.15 297.854 3921.39 321.151C3934.02 344.448 3940.34 370.904 3940.34 400.519C3940.34 430.923 3934.02 457.774 3921.39 481.071C3908.75 503.973 3891.97 521.939 3871.04 534.97C3850.51 548 3827.8 554.515 3802.93 554.515ZM3786.94 504.762C3805.89 504.762 3822.67 500.419 3837.28 491.732C3851.89 482.65 3863.14 470.409 3871.04 455.01C3879.33 439.215 3883.48 421.052 3883.48 400.519C3883.48 370.114 3874.99 345.04 3858.01 325.297C3841.43 305.554 3817.73 295.683 3786.94 295.683C3768.38 295.683 3751.79 300.026 3737.18 308.713C3722.97 317.4 3711.71 329.641 3703.42 345.435C3695.13 361.23 3690.98 379.591 3690.98 400.519C3690.98 420.262 3694.54 438.031 3701.64 453.825C3709.15 469.225 3720.01 481.663 3734.22 491.14C3748.44 500.222 3766.01 504.762 3786.94 504.762ZM3634.12 252.445H3688.61L3690.98 319.374V666.459H3634.12V252.445ZM4227.71 452.048H4281.61C4278.45 471.397 4270.95 488.771 4259.11 504.17C4247.26 519.57 4231.66 531.811 4212.31 540.892C4192.97 549.974 4170.26 554.515 4144.2 554.515C4113.4 554.515 4085.96 548 4061.87 534.97C4037.78 521.939 4018.83 503.973 4005.01 481.071C3991.19 458.169 3984.28 431.515 3984.28 401.111C3984.28 370.312 3990.99 343.461 4004.42 320.559C4017.84 297.262 4036.4 279.098 4060.09 266.068C4083.79 253.037 4110.83 246.522 4141.24 246.522C4173.22 246.522 4200.07 252.84 4221.79 265.475C4243.51 278.111 4259.5 296.867 4269.77 321.743C4280.43 346.225 4284.77 376.827 4282.8 413.549H4040.55C4042.52 431.318 4047.85 447.112 4056.54 460.933C4065.62 474.753 4077.47 485.612 4092.08 493.509C4107.08 501.406 4124.26 505.355 4143.61 505.355C4165.33 505.355 4183.49 500.419 4198.1 490.547C4212.71 480.676 4222.58 467.843 4227.71 452.048ZM4141.83 295.09C4116.16 295.09 4094.84 302 4077.86 315.821C4060.88 329.246 4049.63 347.212 4044.1 369.719H4225.94C4224.36 345.633 4215.67 327.272 4199.88 314.636C4184.08 301.605 4164.73 295.09 4141.83 295.09Z" fill="black"/>
</svg>
